<svg width="81" height="81" viewBox="0 0 81 81" fill="none" xmlns="http://www.w3.org/2000/svg">
<path d="M21.1093 29.2071C21.4998 28.8166 22.133 28.8166 22.5235 29.2071L38.6045 45.2881C38.9969 45.6805 39.6338 45.6783 40.0235 45.2832L75.1093 9.71676C75.4991 9.32169 76.1359 9.31953 76.5283 9.71193L77.1093 10.2929C77.4998 10.6834 77.4998 11.3166 77.1093 11.7071L40.0144 48.802C39.6274 49.189 39.0014 49.193 38.6094 48.8111L20.542 31.207C20.1428 30.818 20.1386 30.1778 20.5328 29.7837L21.1093 29.2071Z" fill="#61B9F9"/>
<path d="M34.751 0.915039C43.2557 -0.320115 51.9146 1.21892 59.4521 5.27441C60.1588 5.65463 60.3964 6.56415 59.9648 7.2793L59.9141 7.36328C59.4894 8.06686 58.5595 8.30799 57.8027 7.90625C50.8917 4.23734 42.9741 2.85185 35.1963 3.98145C26.7479 5.20849 18.9857 9.32771 13.2334 15.6357C7.48107 21.9439 4.09316 30.0527 3.64844 38.5781C3.20381 47.1035 5.72926 55.5203 10.7939 62.3926C15.8586 69.2648 23.1501 74.1691 31.4248 76.2686C39.6998 78.368 48.4483 77.5329 56.1768 73.9062C63.905 70.2796 70.1371 64.0849 73.8105 56.3789C77.1925 49.2841 78.2132 41.3107 76.7549 33.623C76.5952 32.7814 77.1009 31.965 77.8984 31.7676L77.9941 31.7441C78.805 31.5436 79.6029 32.0396 79.7568 32.8271C81.3989 41.2276 80.3054 49.9542 76.6074 57.7119C72.6255 66.0652 65.8695 72.7798 57.4922 76.7109C49.1148 80.642 39.6328 81.5472 30.6631 79.2715C21.6934 76.9958 13.7898 71.6799 8.2998 64.2305C2.80977 56.781 0.0726196 47.6573 0.554688 38.416C1.03682 29.1748 4.70811 20.3856 10.9434 13.5479C17.1787 6.71004 25.5931 2.24513 34.751 0.915039Z" fill="#61B9F9" stroke="#81B6EF"/>
</svg>
